# xmcd
#
# Track frame offsets:
#	150
#	11547
#	27542
#	36592
#	52668
#	63692
#	87842
#	98391
#	110852
#	121711
#	133436
#	150246
#	162521
#	176147
#	194410
#	207085
#	221736
#	237936
#
# Disc length: 3353 seconds
#
# Revision: 1
# Processed by: cddbd v1.5.2PL0 Copyright (c) Steve Scherf et al.
# Submitted via: audiograbber 1.82.02
#
DISCID=fd0d1712
DTITLE=Reg Lindsay - If You Could See Me Know
DYEAR=1974
DGENRE=Country
TTITLE0=Teach Your Children
TTITLE1=I Believe In You
TTITLE2=Six Days On The Road
TTITLE3=Lookin For Love
TTITLE4=Reuben James
TTITLE5=Lyin' Eyes
TTITLE6=On The Road Again
TTITLE7=Behind Closed Doors
TTITLE8=Don't It Make My Brown Eyes Blue
TTITLE9=Darlin
TTITLE10=Just When I Need You Most
TTITLE11=Sixteen Tons
TTITLE12=Loving Arms
TTITLE13=Coward Of The Country
TTITLE14=I Fall To Peices
TTITLE15=Lusille
TTITLE16=It's All In The Game
TTITLE17=I'd Really Love To See You Tonight
EXTD=
EXTT0=
EXTT1=
EXTT2=
EXTT3=
EXTT4=
EXTT5=
EXTT6=
EXTT7=
EXTT8=
EXTT9=
EXTT10=
EXTT11=
EXTT12=
EXTT13=
EXTT14=
EXTT15=
EXTT16=
EXTT17=
PLAYORDER=
